<svg width="24" height="24" viewBox="0 0 24 24" fill="none" xmlns="http://www.w3.org/2000/svg">
<path fill-rule="evenodd" clip-rule="evenodd" d="M18.289 19.7736L21.2578 22.7425L22.7427 21.2575L2.74274 1.25754L1.25781 2.74246L4.22663 5.71128C2.83454 7.42956 2.00027 9.61794 2.00027 12C2.00027 17.52 6.48027 22 12.0003 22C14.3823 22 16.5707 21.1657 18.289 19.7736ZM16.8631 18.3477L12.7578 14.2425L10.0003 17L6.00027 13L7.41027 11.59L10.0003 14.17L11.3428 12.8275L5.65255 7.1372C4.61673 8.48592 4.00027 10.1726 4.00027 12C4.00027 16.41 7.59027 20 12.0003 20C13.8277 20 15.5144 19.3835 16.8631 18.3477ZM22.0003 12C22.0003 13.5854 21.6307 15.0849 20.9732 16.4172L19.456 14.9001C19.8074 14.0005 20.0003 13.0223 20.0003 12C20.0003 7.59 16.4103 4 12.0003 4C10.978 4 9.99978 4.19291 9.10014 4.54423L7.58303 3.02712C8.91533 2.36954 10.4149 2 12.0003 2C17.5203 2 22.0003 6.48 22.0003 12ZM18.0003 9L15.7781 11.2222L14.3631 9.80718L16.5903 7.58L18.0003 9Z" fill="black"/>
</svg>
