<svg width="24" height="24" viewBox="0 0 24 24" fill="none" xmlns="http://www.w3.org/2000/svg">
<path d="M12 4C16.4183 4 20 7.58172 20 12C20 16.4183 16.4183 20 12 20V4Z" fill="white"/>
<path d="M12 20C7.58172 20 4 16.4183 4 12C4 7.58172 7.58172 4 12 4V20Z" fill="black"/>
<path d="M12.5 19.4836V4.5164C16.409 4.7737 19.5 8.02588 19.5 12C19.5 15.9741 16.409 19.2263 12.5 19.4836ZM11.5 19.4836C7.59098 19.2263 4.5 15.9741 4.5 12C4.5 8.02588 7.59098 4.77369 11.5 4.5164V19.4836Z" stroke="black" stroke-opacity="0.1"/>
</svg>
