<svg width="24" height="24" viewBox="0 0 24 24" fill="none" xmlns="http://www.w3.org/2000/svg">
<path d="M21.3365 7.41014C19.7547 5.82833 18.1729 4.24652 16.5911 2.66862C16.4232 2.50068 16.2357 2.35617 16.0287 2.2429C15.189 1.80156 14.2711 1.98513 13.5329 2.7233L8.04544 8.2108L2.67901 13.5772C1.82757 14.4326 1.76899 15.6629 2.58137 16.4909C4.21395 18.1508 5.86997 19.7912 7.52208 21.4355C7.8814 21.7948 8.36961 21.9979 8.88126 21.994C9.53351 21.9901 10.0334 21.7323 10.4592 21.3027C14.0797 17.6782 17.7042 14.0537 21.3287 10.4292C22.2309 9.53093 22.227 8.30064 21.3365 7.41014ZM9.42805 20.1193C9.02577 20.5216 8.82658 20.5255 8.4282 20.131L3.88978 15.5926C3.47187 15.1747 3.47577 14.995 3.89368 14.5771C5.14351 13.3273 7.77985 10.6987 7.84234 10.6401L13.3767 16.1745L12.7752 16.776C11.6582 17.8852 10.5412 19.0022 9.42805 20.1193Z" fill="black"/>
</svg>
