<svg width="24" height="24" viewBox="0 0 24 24" fill="none" xmlns="http://www.w3.org/2000/svg">
<g clip-path="url(#clip0_9838_2425)">
<rect width="24" height="24" rx="12" fill="white"/>
<g clip-path="url(#clip1_9838_2425)">
<mask id="mask0_9838_2425" style="mask-type:luminance" maskUnits="userSpaceOnUse" x="0" y="0" width="24" height="24">
<path d="M24 12C24 13.5759 23.6896 15.1363 23.0866 16.5922C22.4835 18.0481 21.5996 19.371 20.4853 20.4853C19.371 21.5996 18.0481 22.4835 16.5922 23.0866C15.1363 23.6896 13.5759 24 12 24C10.4241 24 8.86371 23.6896 7.4078 23.0866C5.95189 22.4835 4.62902 21.5996 3.51472 20.4853C2.40041 19.371 1.5165 18.0481 0.913446 16.5922C0.31039 15.1363 -4.69643e-08 13.5759 0 12C0 8.8174 1.26428 5.76516 3.51472 3.51472C5.76515 1.26428 8.8174 0 12 0C15.1826 0 18.2348 1.26428 20.4853 3.51472C22.7357 5.76516 24 8.8174 24 12Z" fill="white"/>
</mask>
<g mask="url(#mask0_9838_2425)">
<path d="M24.0028 0.000701904H16.0039V23.9975H24.0028V0.000701904Z" fill="#E32D3C"/>
<path d="M16.0038 0.000701904H8.00488V23.9975H16.0038V0.000701904Z" fill="white"/>
<path d="M8.00479 0.000701904H0.00585938V23.9975H8.00479V0.000701904Z" fill="#2B4896"/>
</g>
</g>
</g>
<defs>
<clipPath id="clip0_9838_2425">
<rect width="24" height="24" rx="12" fill="white"/>
</clipPath>
<clipPath id="clip1_9838_2425">
<rect width="24" height="24" fill="white"/>
</clipPath>
</defs>
</svg>
