<svg width="24" height="24" viewBox="0 0 24 24" fill="none" xmlns="http://www.w3.org/2000/svg">
<g clip-path="url(#clip0_9838_2424)">
<rect width="24" height="24" rx="12" fill="white"/>
<g clip-path="url(#clip1_9838_2424)">
<path d="M12 24C18.6274 24 24 18.6274 24 12C24 5.37258 18.6274 0 12 0C5.37258 0 0 5.37258 0 12C0 18.6274 5.37258 24 12 24Z" fill="#F0F0F0"/>
<path d="M2.4813 4.69416C1.53869 5.92055 0.827922 7.33406 0.414062 8.86964H6.65678L2.4813 4.69416ZM23.5873 8.86964C23.1734 7.33411 22.4626 5.92059 21.52 4.6942L17.3447 8.86964H23.5873ZM0.414062 15.1305C0.827969 16.666 1.53873 18.0795 2.4813 19.3059L6.65664 15.1305H0.414062ZM19.3065 2.48067C18.0801 1.53806 16.6667 0.827297 15.1311 0.413391V6.65606L19.3065 2.48067ZM4.69483 21.5193C5.92122 22.4619 7.33473 23.1727 8.87027 23.5866V17.344L4.69483 21.5193ZM8.87022 0.413391C7.33469 0.827297 5.92117 1.53806 4.69483 2.48063L8.87022 6.65602V0.413391ZM15.1311 23.5866C16.6667 23.1727 18.0802 22.4619 19.3065 21.5194L15.1311 17.344V23.5866ZM17.3447 15.1305L21.52 19.3059C22.4626 18.0796 23.1734 16.666 23.5873 15.1305H17.3447Z" fill="#0052B4"/>
<path d="M23.8984 10.4348H13.5653V0.101578C13.0462 0.0339565 12.5234 2.60722e-05 12 0C11.4694 0 10.9471 0.034875 10.4348 0.101578V10.4347H0.101578C0.0339565 10.9538 2.60722e-05 11.4766 0 12C0 12.5306 0.034875 13.0529 0.101578 13.5652H10.4347V23.8984C11.4738 24.0339 12.5261 24.0339 13.5652 23.8984V13.5653H23.8984C23.966 13.0462 24 12.5234 24 12C24 11.4695 23.9651 10.9471 23.8984 10.4348Z" fill="#D80027"/>
<path d="M15.1307 15.1305L20.4855 20.4853C20.7316 20.2388 20.967 19.9818 21.1908 19.7149L16.6064 15.1304H15.1307V15.1305ZM8.86976 15.1305H8.86966L3.5149 20.4853C3.76136 20.7314 4.0184 20.9668 4.28529 21.1906L8.86976 16.6061V15.1305ZM8.86976 8.86964V8.86954L3.51495 3.51468C3.26878 3.76115 3.03343 4.01819 2.80957 4.28507L7.39409 8.86959H8.86976V8.86964ZM15.1307 8.86964L20.4855 3.51473C20.2391 3.26857 19.982 3.03323 19.7151 2.8094L15.1307 7.39392V8.86964Z" fill="#D80027"/>
</g>
</g>
<defs>
<clipPath id="clip0_9838_2424">
<rect width="24" height="24" rx="12" fill="white"/>
</clipPath>
<clipPath id="clip1_9838_2424">
<rect width="24" height="24" fill="white"/>
</clipPath>
</defs>
</svg>
