<svg width="24" height="24" viewBox="0 0 24 24" fill="none" xmlns="http://www.w3.org/2000/svg">
<g clip-path="url(#clip0_9838_2427)">
<rect width="24" height="24" rx="12" fill="white"/>
<g clip-path="url(#clip1_9838_2427)">
<path d="M0 12C0 13.4678 0.264047 14.8739 0.746391 16.1739L12 17.2174L23.2536 16.1739C23.736 14.8739 24 13.4678 24 12C24 10.5322 23.736 9.12609 23.2536 7.82611L12 6.78262L0.746391 7.82611C0.264047 9.12609 0 10.5322 0 12Z" fill="#FFDA44"/>
<path d="M23.2543 7.82611C21.5588 3.25655 17.1603 0 12.0007 0C6.8411 0 2.44259 3.25655 0.74707 7.82611H23.2543ZM0.74707 16.1739C2.44259 20.7435 6.8411 24 12.0007 24C17.1603 24 21.5588 20.7435 23.2543 16.1739H0.74707Z" fill="#D80027"/>
</g>
</g>
<defs>
<clipPath id="clip0_9838_2427">
<rect width="24" height="24" rx="12" fill="white"/>
</clipPath>
<clipPath id="clip1_9838_2427">
<rect width="24" height="24" fill="white"/>
</clipPath>
</defs>
</svg>
