<svg width="24" height="24" viewBox="0 0 24 24" fill="black" xmlns="http://www.w3.org/2000/svg">
<path d="M2.09643 12.8235H3.00671L7.52092 19.2474C7.64528 19.424 7.81808 19.5609 8.01851 19.6416C8.21893 19.7222 8.43839 19.7431 8.65043 19.7018C8.86257 19.6604 9.05818 19.5585 9.21363 19.4083C9.36909 19.2582 9.47773 19.0662 9.52642 18.8556L12.2161 7.22924H21.8624C22.0109 7.2317 22.1584 7.20457 22.2963 7.14944C22.4342 7.09431 22.5598 7.01228 22.6657 6.90814C22.7715 6.80399 22.8556 6.67981 22.913 6.54283C22.9704 6.40585 23 6.25881 23 6.11029C23 5.96178 22.9704 5.81474 22.913 5.67776C22.8556 5.54078 22.7715 5.4166 22.6657 5.31245C22.5598 5.20831 22.4342 5.12628 22.2963 5.07115C22.1584 5.01602 22.0109 4.98889 21.8624 4.99135H11.3266C11.0737 4.99143 10.8283 5.07716 10.6303 5.23456C10.4324 5.39196 10.2935 5.61176 10.2365 5.85815L7.91115 15.9101L4.50349 11.0611C4.40024 10.9143 4.26317 10.7944 4.10386 10.7117C3.94455 10.629 3.76767 10.5858 3.58815 10.5858H2.09643C1.80361 10.5917 1.52479 10.7122 1.3198 10.9214C1.11481 11.1306 1 11.4118 1 11.7046C1 11.9975 1.11481 12.2787 1.3198 12.4879C1.52479 12.6971 1.80361 12.8176 2.09643 12.8235Z"/>
</svg>
