<svg width="24" height="24" viewBox="0 0 24 24" fill="none" xmlns="http://www.w3.org/2000/svg">
<path d="M14 2H6C4.9 2 4 2.9 4 4V20C4 21.1 4.9 22 6 22H18C19.1 22 20 21.1 20 20V8L14 2ZM18 20H6V4H14V8H18V20Z" fill="black"/>
<path d="M6.53571 16.7143H7.24337V17.7729H8.26554V16.7143H8.97319V19.5H8.26554V18.3618H7.24337V19.5H6.53571V16.7143Z" fill="black"/>
<path d="M10.1714 17.3033H9.3261V16.7143H11.7243V17.3033H10.879V19.5H10.1714V17.3033Z" fill="black"/>
<path d="M12.0796 16.7143H12.803L13.5657 18.127L14.3205 16.7143H15.0282V19.5H14.3205V17.9042L13.7505 18.9628H13.3573L12.7873 17.9042V19.5H12.0796V16.7143Z" fill="black"/>
<path d="M15.5772 16.7143H16.2849V18.911H17.4643V19.5H15.5772V16.7143Z" fill="black"/>
</svg>
