<svg width="24" height="24" viewBox="0 0 24 24" fill="none" xmlns="http://www.w3.org/2000/svg">
<path fill-rule="evenodd" clip-rule="evenodd" d="M17.0814 7.84525C17.0814 10.5145 14.9053 12.6905 12.236 12.6905C9.53782 12.6905 7.3618 10.5145 7.3618 7.84525C7.3618 5.17601 9.53782 3 12.236 3C14.9053 3 17.0814 5.17601 17.0814 7.84525ZM14.238 7.84525C14.238 6.74275 13.3386 5.84332 12.236 5.84332C11.1046 5.84332 10.2051 6.74275 10.2341 7.84525C10.2341 8.94777 11.1336 9.84713 12.236 9.84713C13.3386 9.84713 14.238 8.94777 14.238 7.84525Z" />
<path d="M16.9943 15.5049C16.1239 16.0561 15.1664 16.4333 14.18 16.6654L16.9363 19.3346C17.4875 19.8859 17.4875 20.7853 16.9363 21.3366C16.3851 21.8878 15.4856 21.8878 14.9344 21.3366L12.2651 18.6673L9.59588 21.3366C9.30574 21.5977 8.95758 21.7427 8.58041 21.7427C8.20323 21.7427 7.85507 21.6267 7.56494 21.3366C7.01367 20.7853 7.01367 19.8859 7.56494 19.3346L10.2632 16.6363C9.27672 16.4042 8.31928 16.0271 7.44888 15.4758C6.78156 15.0697 6.57847 14.1993 6.95564 13.5319C7.39085 12.8646 8.26126 12.6906 8.92857 13.0967C10.9015 14.3443 13.4836 14.3443 15.4566 13.0967C16.1239 12.6615 17.0234 12.8646 17.4295 13.5319C17.8647 14.1993 17.6616 15.0986 16.9943 15.5049Z" />
</svg>
