<svg width="24" height="24" viewBox="0 0 24 24" fill="none" xmlns="http://www.w3.org/2000/svg">
<path d="M16.8686 7.20715C16.0067 6.64521 15.3847 5.74609 15.1906 4.69797C15.1487 4.47152 15.1257 4.23846 15.1257 4H12.375L12.3706 15.024C12.3244 16.2585 11.3084 17.2493 10.0628 17.2493C9.67573 17.2493 9.31122 17.1525 8.99028 16.9836C8.25431 16.5963 7.75065 15.8248 7.75065 14.937C7.75065 13.662 8.78795 12.6247 10.0628 12.6247C10.3008 12.6247 10.5291 12.6639 10.7451 12.7316V9.92339C10.5216 9.89296 10.2945 9.87394 10.0628 9.87394C7.27113 9.87394 5 12.1452 5 14.937C5 16.6499 5.85578 18.1658 7.16136 19.0824C7.98373 19.6597 8.98403 20 10.0628 20C12.8546 20 15.1257 17.7288 15.1257 14.937V9.34694C16.2045 10.1213 17.5263 10.5776 18.9525 10.5776V7.82688C18.1842 7.82688 17.4687 7.59847 16.8686 7.20715Z" />
</svg>
