<svg width="24" height="24" viewBox="0 0 24 24" fill="none" xmlns="http://www.w3.org/2000/svg">
<path fill-rule="evenodd" clip-rule="evenodd" d="M21.0074 7.70017C21.1426 7.27715 21.0074 6.96631 20.3638 6.96631H18.2355C17.6944 6.96631 17.4449 7.23483 17.3096 7.53093C17.3096 7.53093 16.2273 10.0056 14.6941 11.613C14.1981 12.0784 13.9726 12.2264 13.702 12.2264C13.5667 12.2264 13.3709 12.0784 13.3709 11.6554V7.70018C13.3709 7.19255 13.2139 6.96631 12.7629 6.96631H9.41848C9.08031 6.96631 8.87693 7.20191 8.87693 7.4252C8.87693 7.90642 9.6435 8.0174 9.72251 9.37107V12.311C9.72251 12.9556 9.59842 13.0725 9.32785 13.0725C8.60636 13.0725 6.85134 10.5868 5.81045 7.74246C5.60646 7.18962 5.40186 6.96631 4.85794 6.96631H2.72969C2.12162 6.96631 2 7.23483 2 7.53093C2 8.05972 2.72152 10.6824 5.35953 14.1512C7.1182 16.52 9.59603 17.8041 11.8508 17.8041C13.2036 17.8041 13.3709 17.5189 13.3709 17.0276V15.2373C13.3709 14.6669 13.4991 14.553 13.9275 14.553C14.2431 14.553 14.7843 14.7011 16.047 15.8432C17.49 17.1969 17.7279 17.8041 18.5395 17.8041H20.6678C21.2759 17.8041 21.5799 17.5189 21.4045 16.9561C21.2126 16.3951 20.5236 15.5812 19.6094 14.6165C19.1134 14.0665 18.3693 13.4743 18.1438 13.1782C17.8282 12.7975 17.9184 12.6283 18.1438 12.2899C18.1438 12.2899 20.7368 8.86344 21.0074 7.70017Z" />
</svg>
