<svg width="24" height="24" viewBox="0 0 24 24" fill="none" xmlns="http://www.w3.org/2000/svg">
<path fill-rule="evenodd" clip-rule="evenodd" d="M5.7126 2.00244V3.94222H13.2876V2.00244H15.0876V3.94222H17.9001V13.0091H16.1001V9.53169H2.9001V19.1001L4.40009 19.1001L4.4001 20.9001L1.1001 20.9001V3.94222H3.9126V2.00244H5.7126ZM2.9001 7.73169H16.1001V5.74222H2.9001V7.73169Z" fill="black"/>
<path d="M20.3647 21.3076L20.3732 20.429C20.9899 20.2431 21.1082 20.0573 21.1082 19.4913V18.9506C21.1082 17.9199 21.463 17.903 21.9699 17.8354V17.4722C21.463 17.4046 21.1082 17.3877 21.1082 16.357V15.8163C21.1082 15.2503 20.9899 15.0645 20.3732 14.8786L20.3647 14C21.9868 14.1352 22.3923 14.6927 22.3923 15.715V16.0191C22.3923 17.1005 22.5444 17.1596 23.009 17.1596V18.148C22.5444 18.148 22.3923 18.2072 22.3923 19.2885V19.5926C22.3923 20.6149 21.9868 21.1724 20.3647 21.3076Z" fill="black"/>
<path d="M20.1542 14.6082L17.8479 18.3422V20.5049H16.1921V18.3422L13.8857 14.6082H15.6092C15.6092 14.6082 16.454 16.0105 16.9271 16.9145H17.1045C17.5776 16.0105 18.4308 14.6082 18.4308 14.6082H20.1542Z" fill="black"/>
<path d="M14.1318 14.6082L11.8254 18.3422V20.5049H10.1696V18.3422L7.86328 14.6082H9.58669C9.58669 14.6082 10.4315 16.0105 10.9046 16.9145H11.082C11.5551 16.0105 12.4084 14.6082 12.4084 14.6082H14.1318Z" fill="black"/>
<path d="M7.64426 21.3076C6.02222 21.1724 5.61671 20.6149 5.61671 19.5926V19.2885C5.61671 18.2072 5.46465 18.148 5 18.148V17.1596C5.46465 17.1596 5.61671 17.1005 5.61671 16.0191V15.715C5.61671 14.6927 6.02222 14.1352 7.64426 14L7.63581 14.8786C7.0191 15.0645 6.90082 15.2503 6.90082 15.8163V16.357C6.90082 17.3877 6.546 17.4046 6.03912 17.4722V17.8354C6.546 17.903 6.90082 17.9199 6.90082 18.9506V19.4913C6.90082 20.0573 7.0191 20.2431 7.63581 20.429L7.64426 21.3076Z" fill="black"/>
</svg>
